<?xml version="1.0" encoding="UTF-8" standalone="no"?>
<!-- Created with Inkscape (http://www.inkscape.org/) -->

<svg
   xmlns:dc="http://purl.org/dc/elements/1.1/"
   xmlns:cc="http://creativecommons.org/ns#"
   xmlns:rdf="http://www.w3.org/1999/02/22-rdf-syntax-ns#"
   xmlns:svg="http://www.w3.org/2000/svg"
   xmlns="http://www.w3.org/2000/svg"
   xmlns:xlink="http://www.w3.org/1999/xlink"
   xmlns:sodipodi="http://sodipodi.sourceforge.net/DTD/sodipodi-0.dtd"
   xmlns:inkscape="http://www.inkscape.org/namespaces/inkscape"
   width="72"
   height="72"
   id="svg2"
   version="1.1"
   inkscape:version="0.48.4 r9939"
   sodipodi:docname="logo_3.svg">
  <defs
     id="defs4">
    <linearGradient
       inkscape:collect="always"
       id="linearGradient3763">
      <stop
         style="stop-color:#000000;stop-opacity:1;"
         offset="0"
         id="stop3765" />
      <stop
         style="stop-color:#000000;stop-opacity:0;"
         offset="1"
         id="stop3767" />
    </linearGradient>
    <linearGradient
       inkscape:collect="always"
       xlink:href="#linearGradient3763"
       id="linearGradient3773"
       x1="39.922611"
       y1="70.313126"
       x2="83.406395"
       y2="70.313126"
       gradientUnits="userSpaceOnUse"
       spreadMethod="reflect" />
  </defs>
  <sodipodi:namedview
     id="base"
     pagecolor="#ffffff"
     bordercolor="#666666"
     borderopacity="1.0"
     inkscape:pageopacity="0.0"
     inkscape:pageshadow="2"
     inkscape:zoom="5.7"
     inkscape:cx="58.996351"
     inkscape:cy="23.758102"
     inkscape:document-units="px"
     inkscape:current-layer="layer1"
     showgrid="false"
     inkscape:window-width="1600"
     inkscape:window-height="837"
     inkscape:window-x="-8"
     inkscape:window-y="-8"
     inkscape:window-maximized="1"
     inkscape:snap-global="false" />
  <metadata
     id="metadata7">
    <rdf:RDF>
      <cc:Work
         rdf:about="">
        <dc:format>image/svg+xml</dc:format>
        <dc:type
           rdf:resource="http://purl.org/dc/dcmitype/StillImage" />
        <dc:title></dc:title>
      </cc:Work>
    </rdf:RDF>
  </metadata>
  <g
     inkscape:label="Layer 1"
     inkscape:groupmode="layer"
     id="layer1"
     transform="translate(0,-980.36218)">
    <path
       sodipodi:type="arc"
       style="fill:#28c2be;fill-opacity:1;fill-rule:evenodd;stroke:#000000;stroke-width:0;stroke-linecap:butt;stroke-linejoin:miter;stroke-miterlimit:4;stroke-opacity:1;stroke-dasharray:none"
       id="path2985"
       sodipodi:cx="19.680161"
       sodipodi:cy="22.331024"
       sodipodi:rx="14.806978"
       sodipodi:ry="14.806978"
       d="m 34.487139,22.331024 c 0,8.177668 -6.62931,14.806978 -14.806978,14.806978 -8.177669,0 -14.8069787,-6.62931 -14.8069787,-14.806978 0,-8.177668 6.6293097,-14.8069781 14.8069787,-14.8069781 8.177668,0 14.806978,6.6293101 14.806978,14.8069781 z"
       transform="matrix(-0.74898265,0,0,0.74898265,74.634259,977.52386)" />
    <path
       sodipodi:type="arc"
       style="fill:#28c2be;fill-opacity:1;fill-rule:nonzero;stroke:url(#linearGradient3773);stroke-width:0;stroke-linecap:butt;stroke-linejoin:miter;stroke-miterlimit:4;stroke-opacity:1;stroke-dasharray:none;marker-start:none"
       id="path2987"
       sodipodi:cx="61.664505"
       sodipodi:cy="70.313126"
       sodipodi:rx="21.741892"
       sodipodi:ry="21.741892"
       d="m 83.406397,70.313126 c 0,12.007715 -9.734177,21.741891 -21.741892,21.741891 -12.007715,0 -21.741892,-9.734176 -21.741892,-21.741891 0,-12.007716 9.734177,-21.741892 21.741892,-21.741892 12.007715,0 21.741892,9.734176 21.741892,21.741892 z"
       transform="matrix(-1.2965079,0,0,1.2965079,110.14612,932.21076)" />
    <path
       inkscape:connector-curvature="0"
       style="opacity:0.91000001;fill:#ffffff;fill-opacity:1;stroke:none"
       d="m 27.090214,1032.611 c 0.01086,0.01 0.022,0.019 0.03307,0.029 0.374447,0.4605 0.210179,1.138 -0.113301,1.5797 -0.27404,0.4177 -0.856608,0.7538 -1.339016,0.4801 -0.06926,-0.041 -0.126381,-0.1 -0.170636,-0.1661 -0.348862,-0.5956 -0.06007,-1.3722 0.433267,-1.7938 0.293277,-0.2942 0.825234,-0.4286 1.158162,-0.1305 z m 1.851333,1.6501 c 0.268165,0.2459 0.239196,0.71 0.05465,1.0093 -0.360086,0.5976 -1.156746,1.0354 -1.83888,0.7286 -0.06005,-0.033 -0.113294,-0.078 -0.157424,-0.1301 -0.311574,-0.3787 -0.109443,-0.9221 0.193655,-1.2388 0.390677,-0.4257 1.055783,-0.7317 1.614568,-0.4598 0.05085,0.025 0.09506,0.055 0.133561,0.091 z m -4.345834,-1.2017 c 0.449489,0.4418 0.361741,1.1987 0.02269,1.6809 -0.215169,0.3732 -0.75681,0.6512 -1.142542,0.3595 -0.501648,-0.4482 -0.374743,-1.2918 0.01746,-1.7704 0.23688,-0.3362 0.744899,-0.552 1.102397,-0.27 z m 4.058505,3.7254 c 0.20501,0.1723 0.296221,0.4681 0.183286,0.7307 -0.302704,0.7019 -1.26187,1.0886 -1.943417,0.697 -0.278669,-0.17 -0.329302,-0.542 -0.19393,-0.8186 0.290601,-0.5903 1.037735,-0.9185 1.670384,-0.7496 0.107465,0.022 0.204151,0.072 0.283677,0.1405 z m -2.983694,-0.8707 c 0.39546,0.345 0.621325,0.8969 0.616806,1.419 -0.02718,0.5895 -0.154091,1.1923 -0.448778,1.709 -0.168262,0.4103 -0.729889,0.5613 -1.069915,0.2686 -0.416639,-0.3436 -0.522544,-0.9279 -0.908949,-1.3015 -0.297542,-0.3517 -0.760534,-0.4412 -1.170985,-0.5936 -0.360703,-0.1168 -0.686121,-0.4765 -0.57362,-0.8762 0.145889,-0.3802 0.56922,-0.552 0.921062,-0.6956 0.62474,-0.1866 1.286636,-0.3779 1.943069,-0.2621 0.265632,0.044 0.498571,0.1635 0.69131,0.3324 z"
       id="path1575" />
    <path
       inkscape:connector-curvature="0"
       style="opacity:0.91000001;fill:#ffffff;fill-opacity:1;stroke:none"
       d="m 22.397818,1023.3367 c 0.01086,0.01 0.022,0.019 0.03307,0.029 0.374447,0.4606 0.210179,1.1381 -0.113301,1.5798 -0.27404,0.4177 -0.856608,0.7538 -1.339016,0.4801 -0.06926,-0.041 -0.126381,-0.1 -0.170636,-0.1661 -0.348862,-0.5956 -0.06007,-1.3722 0.433267,-1.7938 0.293277,-0.2943 0.825234,-0.4287 1.158162,-0.1306 z m 1.851333,1.6502 c 0.268165,0.2459 0.239196,0.71 0.05465,1.0093 -0.360086,0.5976 -1.156746,1.0354 -1.83888,0.7286 -0.06005,-0.033 -0.113294,-0.078 -0.157424,-0.1301 -0.311574,-0.3787 -0.109443,-0.9221 0.193655,-1.2388 0.390677,-0.4257 1.055783,-0.7317 1.614568,-0.4598 0.05085,0.025 0.09506,0.055 0.133561,0.091 z m -4.345834,-1.2017 c 0.449489,0.4418 0.361741,1.1987 0.02269,1.6809 -0.215169,0.3732 -0.75681,0.6512 -1.142542,0.3595 -0.501648,-0.4482 -0.374743,-1.2918 0.01746,-1.7704 0.23688,-0.3362 0.744899,-0.552 1.102397,-0.27 z m 4.058505,3.7254 c 0.20501,0.1723 0.296221,0.4681 0.183286,0.7307 -0.302704,0.7019 -1.26187,1.0886 -1.943417,0.697 -0.278669,-0.17 -0.329302,-0.542 -0.19393,-0.8186 0.290601,-0.5903 1.037735,-0.9185 1.670384,-0.7496 0.107465,0.022 0.204151,0.072 0.283677,0.1405 z m -2.983694,-0.8707 c 0.39546,0.345 0.621325,0.8969 0.616806,1.419 -0.02718,0.5895 -0.154091,1.1923 -0.448778,1.709 -0.168262,0.4103 -0.729889,0.5613 -1.069915,0.2686 -0.416639,-0.3436 -0.522544,-0.9279 -0.908949,-1.3015 -0.297542,-0.3517 -0.760534,-0.4412 -1.170985,-0.5936 -0.360703,-0.1168 -0.686121,-0.4765 -0.57362,-0.8762 0.145889,-0.3802 0.56922,-0.552 0.921062,-0.6956 0.62474,-0.1866 1.286636,-0.3779 1.943069,-0.2621 0.265632,0.044 0.498571,0.1635 0.69131,0.3324 z"
       id="path1575-4" />
    <path
       inkscape:connector-curvature="0"
       style="opacity:0.91000001;fill:#ffffff;fill-opacity:1;stroke:none"
       d="m 35.575176,1024.3948 c 0.01086,0.01 0.022,0.019 0.03307,0.029 0.374447,0.4605 0.210179,1.138 -0.113301,1.5797 -0.27404,0.4177 -0.856608,0.7538 -1.339016,0.4801 -0.06926,-0.041 -0.126381,-0.1 -0.170636,-0.1661 -0.348862,-0.5956 -0.06007,-1.3722 0.433267,-1.7938 0.293277,-0.2942 0.825234,-0.4286 1.158162,-0.1305 z m 1.851333,1.6501 c 0.268165,0.2459 0.239196,0.71 0.05465,1.0093 -0.360086,0.5976 -1.156746,1.0354 -1.83888,0.7286 -0.06005,-0.033 -0.113294,-0.078 -0.157424,-0.1301 -0.311574,-0.3787 -0.109443,-0.9221 0.193655,-1.2388 0.390677,-0.4257 1.055783,-0.7317 1.614568,-0.4598 0.05085,0.025 0.09506,0.055 0.133561,0.091 z m -4.345834,-1.2017 c 0.449489,0.4418 0.361741,1.1987 0.02269,1.6809 -0.215169,0.3732 -0.75681,0.6512 -1.142542,0.3595 -0.501648,-0.4482 -0.374743,-1.2918 0.01746,-1.7704 0.23688,-0.3362 0.744899,-0.552 1.102397,-0.27 z m 4.058505,3.7254 c 0.20501,0.1723 0.296221,0.4681 0.183286,0.7307 -0.302704,0.7019 -1.26187,1.0886 -1.943417,0.697 -0.278669,-0.17 -0.329302,-0.542 -0.19393,-0.8186 0.290601,-0.5903 1.037735,-0.9185 1.670384,-0.7496 0.107465,0.022 0.204151,0.072 0.283677,0.1405 z m -2.983694,-0.8707 c 0.39546,0.345 0.621325,0.8969 0.616806,1.419 -0.02718,0.5895 -0.154091,1.1923 -0.448778,1.709 -0.168262,0.4103 -0.729889,0.5613 -1.069915,0.2686 -0.416639,-0.3436 -0.522544,-0.9279 -0.908949,-1.3015 -0.297542,-0.3517 -0.760534,-0.4412 -1.170985,-0.5936 -0.360703,-0.1168 -0.686121,-0.4765 -0.57362,-0.8762 0.145889,-0.3802 0.56922,-0.552 0.921062,-0.6956 0.62474,-0.1866 1.286636,-0.3779 1.943069,-0.2621 0.265632,0.044 0.498571,0.1635 0.69131,0.3324 z"
       id="path1575-7" />
    <path
       inkscape:connector-curvature="0"
       style="opacity:0.91000001;fill:#ffffff;fill-opacity:1;stroke:none"
       d="m 30.88278,1015.1205 c 0.01086,0.01 0.022,0.019 0.03307,0.029 0.374447,0.4606 0.210179,1.1381 -0.113301,1.5798 -0.27404,0.4177 -0.856608,0.7538 -1.339016,0.4801 -0.06926,-0.041 -0.126381,-0.1 -0.170636,-0.1661 -0.348862,-0.5956 -0.06007,-1.3722 0.433267,-1.7938 0.293277,-0.2943 0.825234,-0.4287 1.158162,-0.1306 z m 1.851333,1.6502 c 0.268165,0.2459 0.239196,0.71 0.05465,1.0093 -0.360086,0.5976 -1.156746,1.0354 -1.83888,0.7286 -0.06005,-0.033 -0.113294,-0.078 -0.157424,-0.1301 -0.311574,-0.3787 -0.109443,-0.9221 0.193655,-1.2388 0.390677,-0.4257 1.055783,-0.7317 1.614568,-0.4598 0.05085,0.025 0.09506,0.055 0.133561,0.091 z m -4.345834,-1.2017 c 0.449489,0.4418 0.361741,1.1987 0.02269,1.6809 -0.215169,0.3732 -0.75681,0.6512 -1.142542,0.3595 -0.501648,-0.4482 -0.374743,-1.2918 0.01746,-1.7704 0.23688,-0.3362 0.744899,-0.552 1.102397,-0.27 z m 4.058505,3.7254 c 0.20501,0.1723 0.296221,0.4681 0.183286,0.7307 -0.302704,0.7019 -1.26187,1.0886 -1.943417,0.697 -0.278669,-0.17 -0.329302,-0.542 -0.19393,-0.8186 0.290601,-0.5903 1.037735,-0.9185 1.670384,-0.7496 0.107465,0.022 0.204151,0.072 0.283677,0.1405 z m -2.983694,-0.8707 c 0.39546,0.345 0.621325,0.8969 0.616806,1.419 -0.02718,0.5895 -0.154091,1.1923 -0.448778,1.709 -0.168262,0.4103 -0.729889,0.5613 -1.069915,0.2686 -0.416639,-0.3436 -0.522544,-0.9279 -0.908949,-1.3015 -0.297542,-0.3517 -0.760534,-0.4412 -1.170985,-0.5936 -0.360703,-0.1168 -0.686121,-0.4765 -0.57362,-0.8762 0.145889,-0.3802 0.56922,-0.552 0.921062,-0.6956 0.62474,-0.1866 1.286636,-0.3779 1.943069,-0.2621 0.265632,0.044 0.498571,0.1635 0.69131,0.3324 z"
       id="path1575-4-1" />
    <path
       inkscape:connector-curvature="0"
       style="opacity:0.91000001;fill:#ffffff;fill-opacity:1;stroke:none"
       d="m 43.575176,1016.3948 c 0.01086,0.01 0.022,0.019 0.03307,0.029 0.374447,0.4605 0.210179,1.138 -0.113301,1.5797 -0.27404,0.4177 -0.856608,0.7538 -1.339016,0.4801 -0.06926,-0.041 -0.126381,-0.1 -0.170636,-0.1661 -0.348862,-0.5956 -0.06007,-1.3722 0.433267,-1.7938 0.293277,-0.2942 0.825234,-0.4286 1.158162,-0.1305 z m 1.851333,1.6501 c 0.268165,0.2459 0.239196,0.71 0.05465,1.0093 -0.360086,0.5976 -1.156746,1.0354 -1.83888,0.7286 -0.06005,-0.033 -0.113294,-0.078 -0.157424,-0.1301 -0.311574,-0.3787 -0.109443,-0.9221 0.193655,-1.2388 0.390677,-0.4257 1.055783,-0.7317 1.614568,-0.4598 0.05085,0.025 0.09506,0.055 0.133561,0.091 z m -4.345834,-1.2017 c 0.449489,0.4418 0.361741,1.1987 0.02269,1.6809 -0.215169,0.3732 -0.75681,0.6512 -1.142542,0.3595 -0.501648,-0.4482 -0.374743,-1.2918 0.01746,-1.7704 0.23688,-0.3362 0.744899,-0.552 1.102397,-0.27 z m 4.058505,3.7254 c 0.20501,0.1723 0.296221,0.4681 0.183286,0.7307 -0.302704,0.7019 -1.26187,1.0886 -1.943417,0.697 -0.278669,-0.17 -0.329302,-0.542 -0.19393,-0.8186 0.290601,-0.5903 1.037735,-0.9185 1.670384,-0.7496 0.107465,0.022 0.204151,0.072 0.283677,0.1405 z m -2.983694,-0.8707 c 0.39546,0.345 0.621325,0.8969 0.616806,1.419 -0.02718,0.5895 -0.154091,1.1923 -0.448778,1.709 -0.168262,0.4103 -0.729889,0.5613 -1.069915,0.2686 -0.416639,-0.3436 -0.522544,-0.9279 -0.908949,-1.3015 -0.297542,-0.3517 -0.760534,-0.4412 -1.170985,-0.5936 -0.360703,-0.1168 -0.686121,-0.4765 -0.57362,-0.8762 0.145889,-0.3802 0.56922,-0.552 0.921062,-0.6956 0.62474,-0.1866 1.286636,-0.3779 1.943069,-0.2621 0.265632,0.044 0.498571,0.1635 0.69131,0.3324 z"
       id="path1575-1" />
    <path
       inkscape:connector-curvature="0"
       style="opacity:0.91000001;fill:#ffffff;fill-opacity:1;stroke:none"
       d="m 38.88278,1007.1205 c 0.01086,0.01 0.022,0.019 0.03307,0.029 0.374447,0.4606 0.210179,1.1381 -0.113301,1.5798 -0.27404,0.4177 -0.856608,0.7538 -1.339016,0.4801 -0.06926,-0.041 -0.126381,-0.1 -0.170636,-0.1661 -0.348862,-0.5956 -0.06007,-1.3722 0.433267,-1.7938 0.293277,-0.2943 0.825234,-0.4287 1.158162,-0.1306 z m 1.851333,1.6502 c 0.268165,0.2459 0.239196,0.71 0.05465,1.0093 -0.360086,0.5976 -1.156746,1.0354 -1.83888,0.7286 -0.06005,-0.033 -0.113294,-0.078 -0.157424,-0.1301 -0.311574,-0.3787 -0.109443,-0.9221 0.193655,-1.2388 0.390677,-0.4257 1.055783,-0.7317 1.614568,-0.4598 0.05085,0.025 0.09506,0.055 0.133561,0.091 z m -4.345834,-1.2017 c 0.449489,0.4418 0.361741,1.1987 0.02269,1.6809 -0.215169,0.3732 -0.75681,0.6512 -1.142542,0.3595 -0.501648,-0.4482 -0.374743,-1.2918 0.01746,-1.7704 0.23688,-0.3362 0.744899,-0.552 1.102397,-0.27 z m 4.058505,3.7254 c 0.20501,0.1723 0.296221,0.4681 0.183286,0.7307 -0.302704,0.7019 -1.26187,1.0886 -1.943417,0.697 -0.278669,-0.17 -0.329302,-0.542 -0.19393,-0.8186 0.290601,-0.5903 1.037735,-0.9185 1.670384,-0.7496 0.107465,0.022 0.204151,0.072 0.283677,0.1405 z m -2.983694,-0.8707 c 0.39546,0.345 0.621325,0.8969 0.616806,1.419 -0.02718,0.5895 -0.154091,1.1923 -0.448778,1.709 -0.168262,0.4103 -0.729889,0.5613 -1.069915,0.2686 -0.416639,-0.3436 -0.522544,-0.9279 -0.908949,-1.3015 -0.297542,-0.3517 -0.760534,-0.4412 -1.170985,-0.5936 -0.360703,-0.1168 -0.686121,-0.4765 -0.57362,-0.8762 0.145889,-0.3802 0.56922,-0.552 0.921062,-0.6956 0.62474,-0.1866 1.286636,-0.3779 1.943069,-0.2621 0.265632,0.044 0.498571,0.1635 0.69131,0.3324 z"
       id="path1575-4-5" />
    <path
       inkscape:connector-curvature="0"
       style="opacity:0.91000001;fill:#ffffff;fill-opacity:1;stroke:none"
       d="m 51.575176,1008.3948 c 0.01086,0.01 0.022,0.019 0.03307,0.029 0.374447,0.4605 0.210179,1.138 -0.113301,1.5797 -0.27404,0.4177 -0.856608,0.7538 -1.339016,0.4801 -0.06926,-0.041 -0.126381,-0.1 -0.170636,-0.1661 -0.348862,-0.5956 -0.06007,-1.3722 0.433267,-1.7938 0.293277,-0.2942 0.825234,-0.4286 1.158162,-0.1305 z m 1.851333,1.6501 c 0.268165,0.2459 0.239196,0.71 0.05465,1.0093 -0.360086,0.5976 -1.156746,1.0354 -1.83888,0.7286 -0.06005,-0.033 -0.113294,-0.078 -0.157424,-0.1301 -0.311574,-0.3787 -0.109443,-0.9221 0.193655,-1.2388 0.390677,-0.4257 1.055783,-0.7317 1.614568,-0.4598 0.05085,0.025 0.09506,0.055 0.133561,0.091 z m -4.345834,-1.2017 c 0.449489,0.4418 0.361741,1.1987 0.02269,1.6809 -0.215169,0.3732 -0.75681,0.6512 -1.142542,0.3595 -0.501648,-0.4482 -0.374743,-1.2918 0.01746,-1.7704 0.23688,-0.3362 0.744899,-0.552 1.102397,-0.27 z m 4.058505,3.7254 c 0.20501,0.1723 0.296221,0.4681 0.183286,0.7307 -0.302704,0.7019 -1.26187,1.0886 -1.943417,0.697 -0.278669,-0.17 -0.329302,-0.542 -0.19393,-0.8186 0.290601,-0.5903 1.037735,-0.9185 1.670384,-0.7496 0.107465,0.022 0.204151,0.072 0.283677,0.1405 z m -2.983694,-0.8707 c 0.39546,0.345 0.621325,0.8969 0.616806,1.419 -0.02718,0.5895 -0.154091,1.1923 -0.448778,1.709 -0.168262,0.4103 -0.729889,0.5613 -1.069915,0.2686 -0.416639,-0.3436 -0.522544,-0.9279 -0.908949,-1.3015 -0.297542,-0.3517 -0.760534,-0.4412 -1.170985,-0.5936 -0.360703,-0.1168 -0.686121,-0.4765 -0.57362,-0.8762 0.145889,-0.3802 0.56922,-0.552 0.921062,-0.6956 0.62474,-0.1866 1.286636,-0.3779 1.943069,-0.2621 0.265632,0.044 0.498571,0.1635 0.69131,0.3324 z"
       id="path1575-2" />
    <path
       inkscape:connector-curvature="0"
       style="opacity:0.91000001;fill:#ffffff;fill-opacity:1;stroke:none"
       d="m 46.88278,999.1205 c 0.01086,0.01 0.022,0.019 0.03307,0.029 0.374447,0.4606 0.210179,1.1381 -0.113301,1.5798 -0.27404,0.4177 -0.856608,0.7538 -1.339016,0.4801 -0.06926,-0.041 -0.126381,-0.1 -0.170636,-0.1661 -0.348862,-0.5956 -0.06007,-1.3722 0.433267,-1.7938 0.293277,-0.2943 0.825234,-0.4287 1.158162,-0.1306 z m 1.851333,1.6502 c 0.268165,0.2459 0.239196,0.71 0.05465,1.0093 -0.360086,0.5976 -1.156746,1.0354 -1.83888,0.7286 -0.06005,-0.033 -0.113294,-0.078 -0.157424,-0.1301 -0.311574,-0.3787 -0.109443,-0.9221 0.193655,-1.2388 0.390677,-0.4257 1.055783,-0.7317 1.614568,-0.4598 0.05085,0.025 0.09506,0.055 0.133561,0.091 z m -4.345834,-1.2017 c 0.449489,0.4418 0.361741,1.1987 0.02269,1.6809 -0.215169,0.3732 -0.75681,0.6512 -1.142542,0.3595 -0.501648,-0.4482 -0.374743,-1.2918 0.01746,-1.7704 0.23688,-0.3362 0.744899,-0.552 1.102397,-0.27 z m 4.058505,3.7254 c 0.20501,0.1723 0.296221,0.4681 0.183286,0.7307 -0.302704,0.7019 -1.26187,1.0886 -1.943417,0.697 -0.278669,-0.17 -0.329302,-0.542 -0.19393,-0.8186 0.290601,-0.5903 1.037735,-0.9185 1.670384,-0.7496 0.107465,0.022 0.204151,0.072 0.283677,0.1405 z m -2.983694,-0.8707 c 0.39546,0.345 0.621325,0.8969 0.616806,1.419 -0.02718,0.5895 -0.154091,1.1923 -0.448778,1.709 -0.168262,0.4103 -0.729889,0.5613 -1.069915,0.2686 -0.416639,-0.3436 -0.522544,-0.9279 -0.908949,-1.3015 -0.297542,-0.3517 -0.760534,-0.4412 -1.170985,-0.5936 -0.360703,-0.1168 -0.686121,-0.4765 -0.57362,-0.8762 0.145889,-0.3802 0.56922,-0.552 0.921062,-0.6956 0.62474,-0.1866 1.286636,-0.3779 1.943069,-0.2621 0.265632,0.044 0.498571,0.1635 0.69131,0.3324 z"
       id="path1575-4-7" />
    <path
       inkscape:connector-curvature="0"
       style="opacity:0.91000001;fill:#ffffff;fill-opacity:1;stroke:none"
       d="m 59.575176,1000.3948 c 0.01086,0.01 0.022,0.019 0.03307,0.029 0.374447,0.4605 0.210179,1.138 -0.113301,1.5797 -0.27404,0.4177 -0.856608,0.7538 -1.339016,0.4801 -0.06926,-0.041 -0.126381,-0.1 -0.170636,-0.1661 -0.348862,-0.5956 -0.06007,-1.3722 0.433267,-1.7938 0.293277,-0.2942 0.825234,-0.4286 1.158162,-0.1305 z m 1.851333,1.6501 c 0.268165,0.2459 0.239196,0.71 0.05465,1.0093 -0.360086,0.5976 -1.156746,1.0354 -1.83888,0.7286 -0.06005,-0.033 -0.113294,-0.078 -0.157424,-0.1301 -0.311574,-0.3787 -0.109443,-0.9221 0.193655,-1.2388 0.390677,-0.4257 1.055783,-0.7317 1.614568,-0.4598 0.05085,0.025 0.09506,0.055 0.133561,0.091 z m -4.345834,-1.2017 c 0.449489,0.4418 0.361741,1.1987 0.02269,1.6809 -0.215169,0.3732 -0.75681,0.6512 -1.142542,0.3595 -0.501648,-0.4482 -0.374743,-1.2918 0.01746,-1.7704 0.23688,-0.3362 0.744899,-0.552 1.102397,-0.27 z m 4.058505,3.7254 c 0.20501,0.1723 0.296221,0.4681 0.183286,0.7307 -0.302704,0.7019 -1.26187,1.0886 -1.943417,0.697 -0.278669,-0.17 -0.329302,-0.542 -0.19393,-0.8186 0.290601,-0.5903 1.037735,-0.9185 1.670384,-0.7496 0.107465,0.022 0.204151,0.072 0.283677,0.1405 z m -2.983694,-0.8707 c 0.39546,0.345 0.621325,0.8969 0.616806,1.419 -0.02718,0.5895 -0.154091,1.1923 -0.448778,1.709 -0.168262,0.4103 -0.729889,0.5613 -1.069915,0.2686 -0.416639,-0.3436 -0.522544,-0.9279 -0.908949,-1.3015 -0.297542,-0.3517 -0.760534,-0.4412 -1.170985,-0.5936 -0.360703,-0.1168 -0.686121,-0.4765 -0.57362,-0.8762 0.145889,-0.3802 0.56922,-0.552 0.921062,-0.6956 0.62474,-0.1866 1.286636,-0.3779 1.943069,-0.2621 0.265632,0.044 0.498571,0.1635 0.69131,0.3324 z"
       id="path1575-6" />
    <path
       inkscape:connector-curvature="0"
       style="opacity:0.91000001;fill:#ffffff;fill-opacity:1;stroke:none"
       d="m 54.88278,991.1205 c 0.01086,0.01 0.022,0.019 0.03307,0.029 0.374447,0.4606 0.210179,1.1381 -0.113301,1.5798 -0.27404,0.4177 -0.856608,0.7538 -1.339016,0.4801 -0.06926,-0.041 -0.126381,-0.1 -0.170636,-0.1661 -0.348862,-0.5956 -0.06007,-1.3722 0.433267,-1.7938 0.293277,-0.2943 0.825234,-0.4287 1.158162,-0.1306 z m 1.851333,1.6502 c 0.268165,0.2459 0.239196,0.71 0.05465,1.0093 -0.360086,0.5976 -1.156746,1.0354 -1.83888,0.7286 -0.06005,-0.033 -0.113294,-0.078 -0.157424,-0.1301 -0.311574,-0.3787 -0.109443,-0.9221 0.193655,-1.2388 0.390677,-0.4257 1.055783,-0.7317 1.614568,-0.4598 0.05085,0.025 0.09506,0.055 0.133561,0.091 z m -4.345834,-1.2017 c 0.449489,0.4418 0.361741,1.1987 0.02269,1.6809 -0.215169,0.3732 -0.75681,0.6512 -1.142542,0.3595 -0.501648,-0.4482 -0.374743,-1.2918 0.01746,-1.7704 0.23688,-0.3362 0.744899,-0.552 1.102397,-0.27 z m 4.058505,3.7254 c 0.20501,0.1723 0.296221,0.4681 0.183286,0.7307 -0.302704,0.7019 -1.26187,1.0886 -1.943417,0.697 -0.278669,-0.17 -0.329302,-0.542 -0.19393,-0.8186 0.290601,-0.5903 1.037735,-0.9185 1.670384,-0.7496 0.107465,0.022 0.204151,0.072 0.283677,0.1405 z m -2.983694,-0.8707 c 0.39546,0.345 0.621325,0.8969 0.616806,1.419 -0.02718,0.5895 -0.154091,1.1923 -0.448778,1.709 -0.168262,0.4103 -0.729889,0.5613 -1.069915,0.2686 -0.416639,-0.3436 -0.522544,-0.9279 -0.908949,-1.3015 -0.297542,-0.3517 -0.760534,-0.4412 -1.170985,-0.5936 -0.360703,-0.1168 -0.686121,-0.4765 -0.57362,-0.8762 0.145889,-0.3802 0.56922,-0.552 0.921062,-0.6956 0.62474,-0.1866 1.286636,-0.3779 1.943069,-0.2621 0.265632,0.044 0.498571,0.1635 0.69131,0.3324 z"
       id="path1575-4-14" />
    <path
       inkscape:connector-curvature="0"
       style="opacity:0.91000001;fill:#ffffff;fill-opacity:1;stroke:none"
       d="m 67.575176,992.3948 c 0.01086,0.01 0.022,0.019 0.03307,0.029 0.374447,0.4605 0.210179,1.138 -0.113301,1.5797 -0.27404,0.4177 -0.856608,0.7538 -1.339016,0.4801 -0.06926,-0.041 -0.126381,-0.1 -0.170636,-0.1661 -0.348862,-0.5956 -0.06007,-1.3722 0.433267,-1.7938 0.293277,-0.2942 0.825234,-0.4286 1.158162,-0.1305 z m 1.851333,1.6501 c 0.268165,0.2459 0.239196,0.71 0.05465,1.0093 -0.360086,0.5976 -1.156746,1.0354 -1.83888,0.7286 -0.06005,-0.033 -0.113294,-0.078 -0.157424,-0.1301 -0.311574,-0.3787 -0.109443,-0.9221 0.193655,-1.2388 0.390677,-0.4257 1.055783,-0.7317 1.614568,-0.4598 0.05085,0.025 0.09506,0.055 0.133561,0.091 z m -4.345834,-1.2017 c 0.449489,0.4418 0.361741,1.1987 0.02269,1.6809 -0.215169,0.3732 -0.75681,0.6512 -1.142542,0.3595 -0.501648,-0.4482 -0.374743,-1.2918 0.01746,-1.7704 0.23688,-0.3362 0.744899,-0.552 1.102397,-0.27 z m 4.058505,3.7254 c 0.20501,0.1723 0.296221,0.4681 0.183286,0.7307 -0.302704,0.7019 -1.26187,1.0886 -1.943417,0.697 -0.278669,-0.17 -0.329302,-0.542 -0.19393,-0.8186 0.290601,-0.5903 1.037735,-0.9185 1.670384,-0.7496 0.107465,0.022 0.204151,0.072 0.283677,0.1405 z m -2.983694,-0.8707 c 0.39546,0.345 0.621325,0.8969 0.616806,1.419 -0.02718,0.5895 -0.154091,1.1923 -0.448778,1.709 -0.168262,0.4103 -0.729889,0.5613 -1.069915,0.2686 -0.416639,-0.3436 -0.522544,-0.9279 -0.908949,-1.3015 -0.297542,-0.3517 -0.760534,-0.4412 -1.170985,-0.5936 -0.360703,-0.1168 -0.686121,-0.4765 -0.57362,-0.8762 0.145889,-0.3802 0.56922,-0.552 0.921062,-0.6956 0.62474,-0.1866 1.286636,-0.3779 1.943069,-0.2621 0.265632,0.044 0.498571,0.1635 0.69131,0.3324 z"
       id="path1575-23" />
    <path
       inkscape:connector-curvature="0"
       style="opacity:0.91000001;fill:#ffffff;fill-opacity:1;stroke:none"
       d="m 62.88278,983.1205 c 0.01086,0.01 0.022,0.019 0.03307,0.029 0.374447,0.4606 0.210179,1.1381 -0.113301,1.5798 -0.27404,0.4177 -0.856608,0.7538 -1.339016,0.4801 -0.06926,-0.041 -0.126381,-0.1 -0.170636,-0.1661 -0.348862,-0.5956 -0.06007,-1.3722 0.433267,-1.7938 0.293277,-0.2943 0.825234,-0.4287 1.158162,-0.1306 z m 1.851333,1.6502 c 0.268165,0.2459 0.239196,0.71 0.05465,1.0093 -0.360086,0.5976 -1.156746,1.0354 -1.83888,0.7286 -0.06005,-0.033 -0.113294,-0.078 -0.157424,-0.1301 -0.311574,-0.3787 -0.109443,-0.9221 0.193655,-1.2388 0.390677,-0.4257 1.055783,-0.7317 1.614568,-0.4598 0.05085,0.025 0.09506,0.055 0.133561,0.091 z m -4.345834,-1.2017 c 0.449489,0.4418 0.361741,1.1987 0.02269,1.6809 -0.215169,0.3732 -0.75681,0.6512 -1.142542,0.3595 -0.501648,-0.4482 -0.374743,-1.2918 0.01746,-1.7704 0.23688,-0.3362 0.744899,-0.552 1.102397,-0.27 z m 4.058505,3.7254 c 0.20501,0.1723 0.296221,0.4681 0.183286,0.7307 -0.302704,0.7019 -1.26187,1.0886 -1.943417,0.697 -0.278669,-0.17 -0.329302,-0.542 -0.19393,-0.8186 0.290601,-0.5903 1.037735,-0.9185 1.670384,-0.7496 0.107465,0.022 0.204151,0.072 0.283677,0.1405 z m -2.983694,-0.8707 c 0.39546,0.345 0.621325,0.8969 0.616806,1.419 -0.02718,0.5895 -0.154091,1.1923 -0.448778,1.709 -0.168262,0.4103 -0.729889,0.5613 -1.069915,0.2686 -0.416639,-0.3436 -0.522544,-0.9279 -0.908949,-1.3015 -0.297542,-0.3517 -0.760534,-0.4412 -1.170985,-0.5936 -0.360703,-0.1168 -0.686121,-0.4765 -0.57362,-0.8762 0.145889,-0.3802 0.56922,-0.552 0.921062,-0.6956 0.62474,-0.1866 1.286636,-0.3779 1.943069,-0.2621 0.265632,0.044 0.498571,0.1635 0.69131,0.3324 z"
       id="path1575-4-2" />
    <path
       inkscape:connector-curvature="0"
       style="opacity:0.91000001;fill:#ffffff;fill-opacity:1;stroke:none"
       d="m 19.575176,1040.3948 c 0.01086,0.01 0.022,0.019 0.03307,0.029 0.374447,0.4605 0.210179,1.138 -0.113301,1.5797 -0.27404,0.4177 -0.856608,0.7538 -1.339016,0.4801 -0.06926,-0.041 -0.126381,-0.1 -0.170636,-0.1661 -0.348862,-0.5956 -0.06007,-1.3722 0.433267,-1.7938 0.293277,-0.2942 0.825234,-0.4286 1.158162,-0.1305 z m 1.851333,1.6501 c 0.268165,0.2459 0.239196,0.71 0.05465,1.0093 -0.360086,0.5976 -1.156746,1.0354 -1.83888,0.7286 -0.06005,-0.033 -0.113294,-0.078 -0.157424,-0.1301 -0.311574,-0.3787 -0.109443,-0.9221 0.193655,-1.2388 0.390677,-0.4257 1.055783,-0.7317 1.614568,-0.4598 0.05085,0.025 0.09506,0.055 0.133561,0.091 z m -4.345834,-1.2017 c 0.449489,0.4418 0.361741,1.1987 0.02269,1.6809 -0.215169,0.3732 -0.75681,0.6512 -1.142542,0.3595 -0.501648,-0.4482 -0.374743,-1.2918 0.01746,-1.7704 0.23688,-0.3362 0.744899,-0.552 1.102397,-0.27 z m 4.058505,3.7254 c 0.20501,0.1723 0.296221,0.4681 0.183286,0.7307 -0.302704,0.7019 -1.26187,1.0886 -1.943417,0.697 -0.278669,-0.17 -0.329302,-0.542 -0.19393,-0.8186 0.290601,-0.5903 1.037735,-0.9185 1.670384,-0.7496 0.107465,0.022 0.204151,0.072 0.283677,0.1405 z m -2.983694,-0.8707 c 0.39546,0.345 0.621325,0.8969 0.616806,1.419 -0.02718,0.5895 -0.154091,1.1923 -0.448778,1.709 -0.168262,0.4103 -0.729889,0.5613 -1.069915,0.2686 -0.416639,-0.3436 -0.522544,-0.9279 -0.908949,-1.3015 -0.297542,-0.3517 -0.760534,-0.4412 -1.170985,-0.5936 -0.360703,-0.1168 -0.686121,-0.4765 -0.57362,-0.8762 0.145889,-0.3802 0.56922,-0.552 0.921062,-0.6956 0.62474,-0.1866 1.286636,-0.3779 1.943069,-0.2621 0.265632,0.044 0.498571,0.1635 0.69131,0.3324 z"
       id="path1575-21" />
    <path
       inkscape:connector-curvature="0"
       style="opacity:0.91000001;fill:#ffffff;fill-opacity:1;stroke:none"
       d="m 14.88278,1031.1205 c 0.01086,0.01 0.022,0.019 0.03307,0.029 0.374447,0.4606 0.210179,1.1381 -0.113301,1.5798 -0.27404,0.4177 -0.856608,0.7538 -1.339016,0.4801 -0.06926,-0.041 -0.126381,-0.1 -0.170636,-0.1661 -0.348862,-0.5956 -0.06007,-1.3722 0.433267,-1.7938 0.293277,-0.2943 0.825234,-0.4287 1.158162,-0.1306 z m 1.851333,1.6502 c 0.268165,0.2459 0.239196,0.71 0.05465,1.0093 -0.360086,0.5976 -1.156746,1.0354 -1.83888,0.7286 -0.06005,-0.033 -0.113294,-0.078 -0.157424,-0.1301 -0.311574,-0.3787 -0.109443,-0.9221 0.193655,-1.2388 0.390677,-0.4257 1.055783,-0.7317 1.614568,-0.4598 0.05085,0.025 0.09506,0.055 0.133561,0.091 z m -4.345834,-1.2017 c 0.449489,0.4418 0.361741,1.1987 0.02269,1.6809 -0.215169,0.3732 -0.75681,0.6512 -1.142542,0.3595 -0.501648,-0.4482 -0.374743,-1.2918 0.01746,-1.7704 0.23688,-0.3362 0.744899,-0.552 1.102397,-0.27 z m 4.058505,3.7254 c 0.20501,0.1723 0.296221,0.4681 0.183286,0.7307 -0.302704,0.7019 -1.26187,1.0886 -1.943417,0.697 -0.278669,-0.17 -0.329302,-0.542 -0.19393,-0.8186 0.290601,-0.5903 1.037735,-0.9185 1.670384,-0.7496 0.107465,0.022 0.204151,0.072 0.283677,0.1405 z m -2.983694,-0.8707 c 0.39546,0.345 0.621325,0.8969 0.616806,1.419 -0.02718,0.5895 -0.154091,1.1923 -0.448778,1.709 -0.168262,0.4103 -0.729889,0.5613 -1.069915,0.2686 -0.416639,-0.3436 -0.522544,-0.9279 -0.908949,-1.3015 -0.297542,-0.3517 -0.760534,-0.4412 -1.170985,-0.5936 -0.360703,-0.1168 -0.686121,-0.4765 -0.57362,-0.8762 0.145889,-0.3802 0.56922,-0.552 0.921062,-0.6956 0.62474,-0.1866 1.286636,-0.3779 1.943069,-0.2621 0.265632,0.044 0.498571,0.1635 0.69131,0.3324 z"
       id="path1575-4-6" />
    <path
       inkscape:connector-curvature="0"
       style="opacity:0.91000001;fill:#ffffff;fill-opacity:1;stroke:none"
       d="m 11.575176,1052.3948 c 0.01086,0.01 0.022,0.019 0.03307,0.029 0.374447,0.4605 0.210179,1.138 -0.113301,1.5797 -0.27404,0.4177 -0.856608,0.7538 -1.339016,0.4801 -0.06926,-0.041 -0.126381,-0.1 -0.170636,-0.1661 -0.348862,-0.5956 -0.06007,-1.3722 0.433267,-1.7938 0.293277,-0.2942 0.825234,-0.4286 1.158162,-0.1305 z m 1.851333,1.6501 c 0.268165,0.2459 0.239196,0.71 0.05465,1.0093 -0.360086,0.5976 -1.156746,1.0354 -1.83888,0.7286 -0.06005,-0.033 -0.113294,-0.078 -0.157424,-0.1301 -0.311574,-0.3787 -0.109443,-0.9221 0.193655,-1.2388 0.390677,-0.4257 1.055783,-0.7317 1.614568,-0.4598 0.05085,0.025 0.09506,0.055 0.133561,0.091 z m -4.345834,-1.2017 c 0.449489,0.4418 0.361741,1.1987 0.02269,1.6809 -0.215169,0.3732 -0.75681,0.6512 -1.142542,0.3595 -0.501648,-0.4482 -0.374743,-1.2918 0.01746,-1.7704 0.23688,-0.3362 0.744899,-0.552 1.102397,-0.27 z m 4.058505,3.7254 c 0.20501,0.1723 0.296221,0.4681 0.183286,0.7307 -0.302704,0.7019 -1.26187,1.0886 -1.943417,0.697 -0.278669,-0.17 -0.329302,-0.542 -0.19393,-0.8186 0.290601,-0.5903 1.037735,-0.9185 1.670384,-0.7496 0.107465,0.022 0.204151,0.072 0.283677,0.1405 z m -2.983694,-0.8707 c 0.39546,0.345 0.621325,0.8969 0.616806,1.419 -0.02718,0.5895 -0.154091,1.1923 -0.448778,1.709 -0.168262,0.4103 -0.729889,0.5613 -1.069915,0.2686 -0.416639,-0.3436 -0.522544,-0.9279 -0.908949,-1.3015 -0.297542,-0.3517 -0.760534,-0.4412 -1.170985,-0.5936 -0.360703,-0.1168 -0.686121,-0.4765 -0.57362,-0.8762 0.145889,-0.3802 0.56922,-0.552 0.921062,-0.6956 0.62474,-0.1866 1.286636,-0.3779 1.943069,-0.2621 0.265632,0.044 0.498571,0.1635 0.69131,0.3324 z"
       id="path1575-8" />
    <path
       inkscape:connector-curvature="0"
       style="opacity:0.91000001;fill:#ffffff;fill-opacity:1;stroke:none"
       d="m 6.88278,1043.1205 c 0.01086,0.01 0.022,0.019 0.03307,0.029 0.374447,0.4606 0.210179,1.1381 -0.113301,1.5798 -0.27404,0.4177 -0.856608,0.7538 -1.339016,0.4801 -0.06926,-0.041 -0.126381,-0.1 -0.170636,-0.1661 -0.348862,-0.5956 -0.06007,-1.3722 0.433267,-1.7938 0.293277,-0.2943 0.825234,-0.4287 1.158162,-0.1306 z m 1.851333,1.6502 c 0.268165,0.2459 0.239196,0.71 0.05465,1.0093 -0.360086,0.5976 -1.156746,1.0354 -1.83888,0.7286 -0.06005,-0.033 -0.113294,-0.078 -0.157424,-0.1301 -0.311574,-0.3787 -0.109443,-0.9221 0.193655,-1.2388 0.390677,-0.4257 1.055783,-0.7317 1.614568,-0.4598 0.05085,0.025 0.09506,0.055 0.133561,0.091 z m -4.345834,-1.2017 c 0.449489,0.4418 0.361741,1.1987 0.02269,1.6809 -0.215169,0.3732 -0.75681,0.6512 -1.142542,0.3595 -0.501648,-0.4482 -0.374743,-1.2918 0.01746,-1.7704 0.23688,-0.3362 0.744899,-0.552 1.102397,-0.27 z m 4.058505,3.7254 c 0.20501,0.1723 0.296221,0.4681 0.183286,0.7307 -0.302704,0.7019 -1.26187,1.0886 -1.943417,0.697 -0.278669,-0.17 -0.329302,-0.542 -0.19393,-0.8186 0.290601,-0.5903 1.037735,-0.9185 1.670384,-0.7496 0.107465,0.022 0.204151,0.072 0.283677,0.1405 z m -2.983694,-0.8707 c 0.39546,0.345 0.621325,0.8969 0.616806,1.419 -0.02718,0.5895 -0.154091,1.1923 -0.448778,1.709 -0.168262,0.4103 -0.729889,0.5613 -1.069915,0.2686 -0.416639,-0.3436 -0.522544,-0.9279 -0.908949,-1.3015 -0.297542,-0.3517 -0.760534,-0.4412 -1.170985,-0.5936 -0.360703,-0.1168 -0.686121,-0.4765 -0.57362,-0.8762 0.145889,-0.3802 0.56922,-0.552 0.921062,-0.6956 0.62474,-0.1866 1.286636,-0.3779 1.943069,-0.2621 0.265632,0.044 0.498571,0.1635 0.69131,0.3324 z"
       id="path1575-4-57" />
    <path
       inkscape:connector-curvature="0"
       style="opacity:0.91000001;fill:#ffffff;fill-opacity:1;stroke:none"
       d="m 8.597399,1040.5998 c 0.01086,0.01 0.022,0.019 0.03307,0.029 0.374447,0.4605 0.210179,1.138 -0.113301,1.5797 -0.27404,0.4177 -0.856608,0.7538 -1.339016,0.4801 -0.06926,-0.041 -0.126381,-0.1 -0.170636,-0.1661 -0.348862,-0.5956 -0.06007,-1.3722 0.433267,-1.7938 0.293277,-0.2942 0.825234,-0.4286 1.158162,-0.1305 z m 1.851333,1.6501 c 0.268165,0.2459 0.239196,0.71 0.05465,1.0093 -0.360086,0.5976 -1.156746,1.0354 -1.83888,0.7286 -0.06005,-0.033 -0.113294,-0.078 -0.157424,-0.1301 -0.311574,-0.3787 -0.109443,-0.9221 0.193655,-1.2388 0.390677,-0.4257 1.055783,-0.7317 1.614568,-0.4598 0.05085,0.025 0.09506,0.055 0.133561,0.091 z m -4.345834,-1.2017 c 0.449489,0.4418 0.361741,1.1987 0.02269,1.6809 -0.215169,0.3732 -0.75681,0.6512 -1.142542,0.3595 -0.501648,-0.4482 -0.374743,-1.2918 0.01746,-1.7704 0.23688,-0.3362 0.744899,-0.552 1.102397,-0.27 z m 4.058505,3.7254 c 0.20501,0.1723 0.296221,0.4681 0.183286,0.7307 -0.302704,0.7019 -1.26187,1.0886 -1.943417,0.697 -0.278669,-0.17 -0.329302,-0.542 -0.19393,-0.8186 0.290601,-0.5903 1.037735,-0.9185 1.670384,-0.7496 0.107465,0.022 0.204151,0.072 0.283677,0.1405 z m -2.983694,-0.8707 c 0.39546,0.345 0.621325,0.8969 0.616806,1.419 -0.02718,0.5895 -0.154091,1.1923 -0.448778,1.709 -0.168262,0.4103 -0.729889,0.5613 -1.069915,0.2686 -0.416639,-0.3436 -0.522544,-0.9279 -0.908949,-1.3015 -0.297542,-0.3517 -0.760534,-0.4412 -1.170985,-0.5936 -0.360703,-0.1168 -0.686121,-0.4765 -0.57362,-0.8762 0.145889,-0.3802 0.56922,-0.552 0.921062,-0.6956 0.62474,-0.1866 1.286636,-0.3779 1.943069,-0.2621 0.265632,0.044 0.498571,0.1635 0.69131,0.3324 z"
       id="path1575-21-6" />
  </g>
</svg>
