<?xml version="1.0" encoding="UTF-8" standalone="no"?>
<!-- Created with Inkscape (http://www.inkscape.org/) -->

<svg
   xmlns:osb="http://www.openswatchbook.org/uri/2009/osb"
   xmlns:dc="http://purl.org/dc/elements/1.1/"
   xmlns:cc="http://creativecommons.org/ns#"
   xmlns:rdf="http://www.w3.org/1999/02/22-rdf-syntax-ns#"
   xmlns:svg="http://www.w3.org/2000/svg"
   xmlns="http://www.w3.org/2000/svg"
   xmlns:xlink="http://www.w3.org/1999/xlink"
   xmlns:sodipodi="http://sodipodi.sourceforge.net/DTD/sodipodi-0.dtd"
   xmlns:inkscape="http://www.inkscape.org/namespaces/inkscape"
   width="72"
   height="72"
   id="svg2"
   version="1.1"
   inkscape:version="0.48.4 r9939"
   sodipodi:docname="logo.svg">
  <defs
     id="defs4">
    <linearGradient
       inkscape:collect="always"
       id="linearGradient5367">
      <stop
         style="stop-color:#28c2be;stop-opacity:1;"
         offset="0"
         id="stop5369" />
      <stop
         style="stop-color:#28c2be;stop-opacity:0;"
         offset="1"
         id="stop5371" />
    </linearGradient>
    <linearGradient
       inkscape:collect="always"
       id="linearGradient5318">
      <stop
         style="stop-color:#00c2bd;stop-opacity:1;"
         offset="0"
         id="stop5320" />
      <stop
         id="stop5334"
         offset="0.3296659"
         style="stop-color:#00c2bd;stop-opacity:0.82352941;" />
      <stop
         style="stop-color:#00c2bd;stop-opacity:0.48627451;"
         offset="0.5047754"
         id="stop5336" />
      <stop
         id="stop5340"
         offset="0.67536879"
         style="stop-color:#00c2bd;stop-opacity:0.3372549;" />
      <stop
         id="stop5338"
         offset="0.86438495"
         style="stop-color:#00c2bd;stop-opacity:0.20392157;" />
      <stop
         style="stop-color:#00c2bd;stop-opacity:0;"
         offset="1"
         id="stop5322" />
    </linearGradient>
    <linearGradient
       id="linearGradient3013"
       osb:paint="gradient">
      <stop
         style="stop-color:#28c2be;stop-opacity:1;"
         offset="0"
         id="stop3015" />
      <stop
         id="stop3049"
         offset="0"
         style="stop-color:#28c2be;stop-opacity:0.93333333;" />
      <stop
         style="stop-color:#28c2bd;stop-opacity:1"
         offset="1"
         id="stop3017" />
    </linearGradient>
    <linearGradient
       inkscape:collect="always"
       id="linearGradient3763">
      <stop
         style="stop-color:#000000;stop-opacity:1;"
         offset="0"
         id="stop3765" />
      <stop
         style="stop-color:#000000;stop-opacity:0;"
         offset="1"
         id="stop3767" />
    </linearGradient>
    <linearGradient
       inkscape:collect="always"
       xlink:href="#linearGradient3763"
       id="linearGradient3773"
       x1="57.64904"
       y1="75.996407"
       x2="81.931946"
       y2="61.923519"
       gradientUnits="userSpaceOnUse"
       spreadMethod="reflect" />
    <linearGradient
       inkscape:collect="always"
       xlink:href="#linearGradient5318"
       id="linearGradient5324"
       x1="68.71804"
       y1="66.151123"
       x2="42.466694"
       y2="88.884254"
       gradientUnits="userSpaceOnUse" />
    <linearGradient
       inkscape:collect="always"
       xlink:href="#linearGradient5367"
       id="linearGradient5373"
       x1="20.719048"
       y1="22.765158"
       x2="6.9196744"
       y2="36.657425"
       gradientUnits="userSpaceOnUse" />
  </defs>
  <sodipodi:namedview
     id="base"
     pagecolor="#18132f"
     bordercolor="#666666"
     borderopacity="1.0"
     inkscape:pageopacity="0"
     inkscape:pageshadow="2"
     inkscape:zoom="5.7"
     inkscape:cx="15.649037"
     inkscape:cy="24.51145"
     inkscape:document-units="px"
     inkscape:current-layer="layer1"
     showgrid="false"
     inkscape:window-width="1600"
     inkscape:window-height="837"
     inkscape:window-x="-8"
     inkscape:window-y="-8"
     inkscape:window-maximized="1"
     inkscape:snap-global="false"
     showguides="true"
     inkscape:guide-bbox="true" />
  <metadata
     id="metadata7">
    <rdf:RDF>
      <cc:Work
         rdf:about="">
        <dc:format>image/svg+xml</dc:format>
        <dc:type
           rdf:resource="http://purl.org/dc/dcmitype/StillImage" />
        <dc:title />
      </cc:Work>
    </rdf:RDF>
  </metadata>
  <g
     inkscape:label="Layer 1"
     inkscape:groupmode="layer"
     id="layer1"
     transform="translate(0,-980.36218)">
    <path
       sodipodi:type="arc"
       style="fill:url(#linearGradient5373);fill-opacity:1;fill-rule:evenodd;stroke:#000000;stroke-width:0;stroke-linecap:butt;stroke-linejoin:miter;stroke-miterlimit:4;stroke-opacity:1;stroke-dasharray:none"
       id="path2985"
       sodipodi:cx="19.680161"
       sodipodi:cy="22.331024"
       sodipodi:rx="14.806978"
       sodipodi:ry="14.806978"
       d="m 34.487139,22.331024 a 14.806978,14.806978 0 1 1 -29.6139567,0 14.806978,14.806978 0 1 1 29.6139567,0 z"
       transform="matrix(-0.80822451,0,0,0.80822451,73.800148,976.20093)" />
    <path
       sodipodi:type="arc"
       style="fill:url(#linearGradient5324);fill-opacity:1;fill-rule:nonzero;stroke:url(#linearGradient3773);stroke-width:0;stroke-linecap:butt;stroke-linejoin:miter;stroke-miterlimit:4;stroke-opacity:1;stroke-dasharray:none;marker-start:none"
       id="path2987"
       sodipodi:cx="61.664505"
       sodipodi:cy="70.313126"
       sodipodi:rx="21.741892"
       sodipodi:ry="21.741892"
       d="m 83.406397,70.313126 a 21.741892,21.741892 0 1 1 -43.483784,0 21.741892,21.741892 0 1 1 43.483784,0 z"
       transform="matrix(-1.2965079,0,0,1.2965079,109.97068,932.91251)" />
    <path
       inkscape:connector-curvature="0"
       style="opacity:1;fill:#ffffff;fill-opacity:1;stroke:none"
       d="m 24.508667,1018.7445 c 0.03033,0.028 0.06144,0.053 0.09235,0.081 1.0457,1.2863 0.586957,3.1783 -0.31641,4.4118 -0.765299,1.1665 -2.392208,2.1051 -3.739406,1.3408 -0.193419,-0.1145 -0.352938,-0.2793 -0.476527,-0.4639 -0.97425,-1.6633 -0.167755,-3.832 1.209964,-5.0094 0.819021,-0.8219 2.304591,-1.1972 3.234344,-0.3648 z m 5.170129,4.6085 c 0.748892,0.6867 0.667991,1.9827 0.152619,2.8186 -1.005595,1.6689 -3.23039,2.8915 -5.135353,2.0347 -0.167698,-0.092 -0.31639,-0.2178 -0.43963,-0.3633 -0.870118,-1.0576 -0.305636,-2.5751 0.540811,-3.4596 1.091025,-1.1888 2.948435,-2.0433 4.508927,-1.284 0.142006,0.07 0.265469,0.1536 0.372989,0.2541 z m -12.136402,-3.356 c 1.255266,1.2338 1.010216,3.3476 0.06336,4.6942 -0.600892,1.0422 -2.113507,1.8186 -3.190722,1.0039 -1.400929,-1.2516 -1.046527,-3.6075 0.04876,-4.9441 0.661523,-0.9389 2.080243,-1.5415 3.078611,-0.754 z m 11.333992,10.4038 c 0.572522,0.4811 0.827242,1.3072 0.511854,2.0406 -0.845347,1.9601 -3.523964,3.04 -5.427287,1.9464 -0.778226,-0.4747 -0.919626,-1.5136 -0.541579,-2.286 0.811547,-1.6485 2.898032,-2.5651 4.664801,-2.0934 0.300112,0.061 0.570123,0.2011 0.792211,0.3924 z m -8.332419,-2.4316 c 1.104382,0.9635 1.735144,2.5047 1.722524,3.9628 -0.0759,1.6462 -0.430322,3.3297 -1.25328,4.7726 -0.469898,1.1458 -2.038326,1.5675 -2.987901,0.7501 -1.163527,-0.9595 -1.459283,-2.5913 -2.538378,-3.6346 -0.830931,-0.9822 -2.123907,-1.2321 -3.270154,-1.6577 -1.007318,-0.3262 -1.916097,-1.3307 -1.601921,-2.4469 0.407417,-1.0618 1.589633,-1.5416 2.572206,-1.9426 1.744681,-0.5211 3.593127,-1.0554 5.426315,-0.732 0.741818,0.1229 1.392336,0.4566 1.930589,0.9283 z"
       id="path1575-4-6" />
    <path
       inkscape:connector-curvature="0"
       style="opacity:0.91000001;fill:#ffffff;fill-opacity:1;stroke:none"
       d="m 11.575176,1052.3948 c 0.01086,0.01 0.022,0.019 0.03307,0.029 0.374447,0.4605 0.210179,1.138 -0.113301,1.5797 -0.27404,0.4177 -0.856608,0.7538 -1.339016,0.4801 -0.06926,-0.041 -0.126381,-0.1 -0.170636,-0.1661 -0.348862,-0.5956 -0.06007,-1.3722 0.433267,-1.7938 0.293277,-0.2942 0.825234,-0.4286 1.158162,-0.1305 z m 1.851333,1.6501 c 0.268165,0.2459 0.239196,0.71 0.05465,1.0093 -0.360086,0.5976 -1.156746,1.0354 -1.83888,0.7286 -0.06005,-0.033 -0.113294,-0.078 -0.157424,-0.1301 -0.311574,-0.3787 -0.109443,-0.9221 0.193655,-1.2388 0.390677,-0.4257 1.055783,-0.7317 1.614568,-0.4598 0.05085,0.025 0.09506,0.055 0.133561,0.091 z m -4.345834,-1.2017 c 0.449489,0.4418 0.361741,1.1987 0.02269,1.6809 -0.215169,0.3732 -0.75681,0.6512 -1.142542,0.3595 -0.501648,-0.4482 -0.374743,-1.2918 0.01746,-1.7704 0.23688,-0.3362 0.744899,-0.552 1.102397,-0.27 z m 4.058505,3.7254 c 0.20501,0.1723 0.296221,0.4681 0.183286,0.7307 -0.302704,0.7019 -1.26187,1.0886 -1.943417,0.697 -0.278669,-0.17 -0.329302,-0.542 -0.19393,-0.8186 0.290601,-0.5903 1.037735,-0.9185 1.670384,-0.7496 0.107465,0.022 0.204151,0.072 0.283677,0.1405 z m -2.983694,-0.8707 c 0.39546,0.345 0.621325,0.8969 0.616806,1.419 -0.02718,0.5895 -0.154091,1.1923 -0.448778,1.709 -0.168262,0.4103 -0.729889,0.5613 -1.069915,0.2686 -0.416639,-0.3436 -0.522544,-0.9279 -0.908949,-1.3015 -0.297542,-0.3517 -0.760534,-0.4412 -1.170985,-0.5936 -0.360703,-0.1168 -0.686121,-0.4765 -0.57362,-0.8762 0.145889,-0.3802 0.56922,-0.552 0.921062,-0.6956 0.62474,-0.1866 1.286636,-0.3779 1.943069,-0.2621 0.265632,0.044 0.498571,0.1635 0.69131,0.3324 z"
       id="path1575-8" />
    <path
       inkscape:connector-curvature="0"
       style="opacity:0.91000001;fill:#ffffff;fill-opacity:1;stroke:none"
       d="m 6.88278,1043.1205 c 0.01086,0.01 0.022,0.019 0.03307,0.029 0.374447,0.4606 0.210179,1.1381 -0.113301,1.5798 -0.27404,0.4177 -0.856608,0.7538 -1.339016,0.4801 -0.06926,-0.041 -0.126381,-0.1 -0.170636,-0.1661 -0.348862,-0.5956 -0.06007,-1.3722 0.433267,-1.7938 0.293277,-0.2943 0.825234,-0.4287 1.158162,-0.1306 z m 1.851333,1.6502 c 0.268165,0.2459 0.239196,0.71 0.05465,1.0093 -0.360086,0.5976 -1.156746,1.0354 -1.83888,0.7286 -0.06005,-0.033 -0.113294,-0.078 -0.157424,-0.1301 -0.311574,-0.3787 -0.109443,-0.9221 0.193655,-1.2388 0.390677,-0.4257 1.055783,-0.7317 1.614568,-0.4598 0.05085,0.025 0.09506,0.055 0.133561,0.091 z m -4.345834,-1.2017 c 0.449489,0.4418 0.361741,1.1987 0.02269,1.6809 -0.215169,0.3732 -0.75681,0.6512 -1.142542,0.3595 -0.501648,-0.4482 -0.374743,-1.2918 0.01746,-1.7704 0.23688,-0.3362 0.744899,-0.552 1.102397,-0.27 z m 4.058505,3.7254 c 0.20501,0.1723 0.296221,0.4681 0.183286,0.7307 -0.302704,0.7019 -1.26187,1.0886 -1.943417,0.697 -0.278669,-0.17 -0.329302,-0.542 -0.19393,-0.8186 0.290601,-0.5903 1.037735,-0.9185 1.670384,-0.7496 0.107465,0.022 0.204151,0.072 0.283677,0.1405 z m -2.983694,-0.8707 c 0.39546,0.345 0.621325,0.8969 0.616806,1.419 -0.02718,0.5895 -0.154091,1.1923 -0.448778,1.709 -0.168262,0.4103 -0.729889,0.5613 -1.069915,0.2686 -0.416639,-0.3436 -0.522544,-0.9279 -0.908949,-1.3015 -0.297542,-0.3517 -0.760534,-0.4412 -1.170985,-0.5936 -0.360703,-0.1168 -0.686121,-0.4765 -0.57362,-0.8762 0.145889,-0.3802 0.56922,-0.552 0.921062,-0.6956 0.62474,-0.1866 1.286636,-0.3779 1.943069,-0.2621 0.265632,0.044 0.498571,0.1635 0.69131,0.3324 z"
       id="path1575-4-57" />
    <path
       sodipodi:type="arc"
       style="opacity:0.91000001;fill:#ffffff;fill-opacity:1;fill-rule:nonzero;stroke:#ffffff;stroke-width:0.40000001;stroke-linejoin:round;stroke-miterlimit:4;stroke-opacity:1;stroke-dasharray:none"
       id="path3829"
       sodipodi:cx="-38.684212"
       sodipodi:cy="43.052631"
       sodipodi:rx="3.7719297"
       sodipodi:ry="2.4561403"
       d="m -34.912282,43.052631 a 3.7719297,2.4561403 0 1 1 -7.543859,0 3.7719297,2.4561403 0 1 1 7.543859,0 z"
       transform="translate(0,980.36218)" />
    <path
       inkscape:connector-curvature="0"
       style="fill:#ffffff;fill-opacity:1;stroke:none"
       d="m 49.732059,1013.2764 c 0.03033,0.028 0.06144,0.053 0.09235,0.081 1.0457,1.2863 0.586957,3.1783 -0.31641,4.4118 -0.765299,1.1665 -2.392208,2.1051 -3.739407,1.3408 -0.193419,-0.1145 -0.352938,-0.2793 -0.476527,-0.4639 -0.97425,-1.6633 -0.167755,-3.832 1.209965,-5.0094 0.819021,-0.8219 2.304591,-1.1972 3.234344,-0.3648 z m 5.170129,4.6085 c 0.748892,0.6867 0.667991,1.9827 0.152619,2.8186 -1.005595,1.6689 -3.23039,2.8915 -5.135353,2.0347 -0.167698,-0.092 -0.31639,-0.2178 -0.43963,-0.3633 -0.870118,-1.0576 -0.305636,-2.5751 0.540811,-3.4596 1.091025,-1.1888 2.948435,-2.0433 4.508927,-1.284 0.142006,0.07 0.265469,0.1536 0.372989,0.2541 z m -12.136403,-3.356 c 1.255266,1.2338 1.010216,3.3476 0.06336,4.6942 -0.600892,1.0422 -2.113507,1.8186 -3.190722,1.0039 -1.400928,-1.2516 -1.046527,-3.6075 0.04876,-4.9441 0.661523,-0.9389 2.080243,-1.5415 3.078611,-0.754 z m 11.333993,10.4038 c 0.572522,0.4811 0.827242,1.3072 0.511854,2.0406 -0.845347,1.9601 -3.523964,3.04 -5.427287,1.9464 -0.778226,-0.4747 -0.919626,-1.5136 -0.541579,-2.286 0.811547,-1.6485 2.898032,-2.5651 4.664801,-2.0934 0.300112,0.061 0.570123,0.2011 0.792211,0.3924 z m -8.33242,-2.4316 c 1.104383,0.9635 1.735145,2.5047 1.722525,3.9628 -0.0759,1.6462 -0.430322,3.3297 -1.25328,4.7726 -0.469899,1.1458 -2.038327,1.5675 -2.987902,0.7501 -1.163527,-0.9595 -1.459283,-2.5913 -2.538378,-3.6346 -0.830931,-0.9822 -2.123907,-1.2321 -3.270153,-1.6577 -1.007318,-0.3262 -1.916098,-1.3307 -1.601922,-2.4469 0.407418,-1.0618 1.589634,-1.5416 2.572206,-1.9426 1.744681,-0.5211 3.593127,-1.0554 5.426315,-0.732 0.741818,0.1229 1.392336,0.4566 1.930589,0.9283 z"
       id="path1575-4-6-6" />
    <path
       inkscape:connector-curvature="0"
       style="fill:#ffffff;fill-opacity:1;stroke:none"
       d="m 48.925041,989.0308 c 0.03033,0.028 0.06144,0.053 0.09235,0.081 1.0457,1.2863 0.586957,3.1783 -0.31641,4.4118 -0.765299,1.1665 -2.392208,2.1051 -3.739406,1.3408 -0.193419,-0.1145 -0.352938,-0.2793 -0.476527,-0.4639 -0.97425,-1.6633 -0.167755,-3.832 1.209964,-5.0094 0.819021,-0.8219 2.304591,-1.1972 3.234344,-0.3648 z m 5.170129,4.6085 c 0.748892,0.6867 0.667991,1.9827 0.152619,2.8186 -1.005595,1.6689 -3.23039,2.8915 -5.135353,2.0347 -0.167698,-0.092 -0.31639,-0.2178 -0.43963,-0.3633 -0.870118,-1.0576 -0.305636,-2.5751 0.540811,-3.4596 1.091025,-1.1888 2.948435,-2.0433 4.508927,-1.284 0.142006,0.07 0.265469,0.1536 0.372989,0.2541 z m -12.136402,-3.356 c 1.255266,1.2338 1.010216,3.3476 0.06336,4.6942 -0.600895,1.0422 -2.11351,1.8186 -3.190725,1.0039 -1.400929,-1.2516 -1.046528,-3.6075 0.04876,-4.9441 0.661523,-0.9389 2.080243,-1.5415 3.078611,-0.754 z m 11.333992,10.4038 c 0.572522,0.4811 0.827242,1.3072 0.511854,2.0406 -0.845347,1.9601 -3.523964,3.04 -5.427287,1.9464 -0.778226,-0.4747 -0.919626,-1.5136 -0.541579,-2.286 0.811547,-1.6485 2.898032,-2.5651 4.664801,-2.0934 0.300112,0.061 0.570123,0.2011 0.792211,0.3924 z m -8.332419,-2.4316 c 1.104382,0.9635 1.735144,2.5047 1.722524,3.9628 -0.0759,1.6462 -0.430322,3.3297 -1.25328,4.7726 -0.469898,1.1458 -2.038326,1.5675 -2.987901,0.7501 -1.163527,-0.9595 -1.459283,-2.5913 -2.538378,-3.6346 -0.830931,-0.9822 -2.123907,-1.2321 -3.270154,-1.6577 -1.007318,-0.3262 -1.916097,-1.3307 -1.601921,-2.4469 0.407417,-1.0618 1.589633,-1.5416 2.572205,-1.9426 1.744682,-0.5211 3.593128,-1.0554 5.426316,-0.732 0.741818,0.1229 1.392336,0.4566 1.930589,0.9283 z"
       id="path1575-4-6-0" />
  </g>
</svg>
